<?xml version="1.0" encoding="utf-8"?>
<!-- Generator: Adobe Illustrator 19.0.0, SVG Export Plug-In . SVG Version: 6.00 Build 0)  -->
<svg version="1.1" id="图层_1" xmlns="http://www.w3.org/2000/svg" xmlns:xlink="http://www.w3.org/1999/xlink" x="0px" y="0px"
	 viewBox="0 0 26 26" style="enable-background:new 0 0 26 26;" xml:space="preserve">
<g id="XMLID_1331_">
	<path id="XMLID_1367_" d="M3.5,10.1c-0.8,0-1.5,0.7-1.5,1.5v6c0,0.8,0.7,1.5,1.5,1.5S5,18.5,5,17.6v-6C5,10.8,4.3,10.1,3.5,10.1z
		 M4,17.6c0,0.3-0.2,0.5-0.5,0.5c-0.3,0-0.5-0.2-0.5-0.5v-6c0-0.3,0.2-0.5,0.5-0.5c0.3,0,0.5,0.2,0.5,0.5V17.6z"/>
	<path id="XMLID_1374_" d="M6,15.1v1v2c0,1.7,1.4,3,3,3v2.5c0,0.8,0.7,1.5,1.5,1.5s1.5-0.7,1.5-1.5V21h2v2.6c0,0.8,0.7,1.5,1.5,1.5
		s1.5-0.7,1.5-1.5v-2.5c1.7,0,3-1.3,3-3v-2v-1V10H6V15.1z M11,23.6c0,0.3-0.2,0.5-0.5,0.5c-0.3,0-0.5-0.2-0.5-0.5V21h1V23.6z
		 M16,23.6c0,0.3-0.2,0.5-0.5,0.5c-0.3,0-0.5-0.2-0.5-0.5V21h1V23.6z M7,11h12v1.9v2.2v1v2c0,1.1-0.9,1.9-2,1.9h-1h-1h-1h-2h-1h-1H9
		c-1.1,0-2-0.8-2-1.9v-2v-1v-2.2V11z"/>
	<path id="XMLID_1383_" d="M22.5,10.1c-0.8,0-1.5,0.7-1.5,1.5v6c0,0.8,0.7,1.5,1.5,1.5s1.5-0.7,1.5-1.5v-6
		C24,10.8,23.3,10.1,22.5,10.1z M23,17.6c0,0.3-0.2,0.5-0.5,0.5c-0.3,0-0.5-0.2-0.5-0.5v-6c0-0.3,0.2-0.5,0.5-0.5
		c0.3,0,0.5,0.2,0.5,0.5V17.6z"/>
	<path id="XMLID_1390_" d="M16.5,3l0.9-1.5L16.6,1l-0.9,1.6c-0.8-0.3-1.7-0.5-2.6-0.5s-1.8,0.2-2.6,0.5L9.4,1L8.6,1.5L9.5,3
		C7.4,4.2,6,7,6,9c3.9,0,7.2,0,14,0C20,7,18.6,4.2,16.5,3z M15,8V6h-1v2h-2V6h-1v2H7.1C7.6,5,10,3,13,3c3,0,5.4,2,5.9,5H15z"/>
</g>
</svg>
