<?xml version="1.0" encoding="utf-8"?>
<!-- Generator: Adobe Illustrator 19.0.0, SVG Export Plug-In . SVG Version: 6.00 Build 0)  -->
<svg version="1.1" id="图层_1" xmlns="http://www.w3.org/2000/svg" xmlns:xlink="http://www.w3.org/1999/xlink" x="0px" y="0px"
   viewBox="0 0 64 64" style="enable-background:new 0 0 64 64;" xml:space="preserve">
<g id="XMLID_1135_">
  <path id="XMLID_1142_" d="M50.7,45.3c-0.8-2.5-0.9-2.9-1.4-4.3c-0.4-1.4-2-1.7-3.3-1.3c-0.9,0.3-4.9,1.3-7.6,2l-3.2-5.5
    c-0.6-1.1-2-1.5-3.1-0.8c-1.1,0.6-1.5,2-0.8,3.1l3.4,5.9l0,0c0,0,1.3,2.2,1.7,3c1.9,3.3-4-0.1-4.2,2.4s5.5,4.4,6.9,4.7
    c1.5,0.3,6.4,0.4,9.3-1.2C51.4,51.6,51.5,47.9,50.7,45.3z M43.6,50.8c-0.4,0.2-0.8,0.1-1-0.3l-2.7-4.7c-0.2-0.4-0.1-0.8,0.3-1
    c0.4-0.2,0.8-0.1,1,0.3l2.7,4.7C44,50.2,43.9,50.6,43.6,50.8z M46.2,49.4c-0.4,0.2-0.8,0-1-0.3l-1.9-3.8c-0.2-0.4,0-0.8,0.3-1
    c0.4-0.2,0.8,0,1,0.3l1.9,3.8C46.7,48.7,46.5,49.2,46.2,49.4z M48.5,47.9c-0.4,0.1-0.8-0.1-1-0.4l-1.2-3.1c-0.1-0.4,0-0.8,0.4-1
    c0.4-0.1,0.8,0,1,0.4l1.2,3.1C49.1,47.3,48.9,47.8,48.5,47.9z"/>
  <path id="XMLID_1137_" d="M33.8,31c-0.6,0-1-0.2-1.4-0.4c-0.4-0.2-0.7-0.3-1.3-0.3c-0.6,0-0.9,0.1-1.3,0.3S29,31,28.4,31l0,0
    c-1.3,0-2.2-1.2-3-2.2l-0.1-0.1c-1.7-2.4-2.6-6.3-1.1-8.9c0.8-1.4,2.3-2.3,3.9-2.3c0.7,0,1.3,0.3,1.9,0.5c0.3,0.1,0.7,0.3,0.9,0.3
    c0.2,0,0.5-0.1,0.8-0.3c0.7-0.3,1.5-0.6,2.4-0.5c1.8,0.2,2.9,0.9,3.4,1.9c0,0,0.2,0.4,0.1,0.4c-0.1,0.1-0.2,0.1-0.4,0.3
    c-0.2,0.1-1.4,0.9-1.4,2.7c0,1.7,1,2.3,1.6,2.6c0.5,0.3,0.5,0.4,0.5,0.5s-0.4,1.5-1.2,2.8C36.1,29.9,35.2,31,33.8,31z M31.1,29.4
    c0.8,0,1.2,0.2,1.7,0.4c0.4,0.2,0.6,0.3,1,0.3c0.8,0,1.4-0.7,2.1-1.8c0.6-0.8,0.8-1.5,1-1.9c-0.7-0.4-2-1.2-2-3.5
    c0-1.8,0.9-2.9,1.6-3.4c-0.5-0.5-1.3-0.8-2.4-1c-0.6-0.1-1.3,0.2-1.9,0.4c-0.5,0.2-0.8,0.3-1.2,0.3c-0.4,0-0.8-0.2-1.2-0.3
    c-0.5-0.2-1-0.4-1.5-0.4c-1.2,0-2.4,0.7-3,1.8c-1.4,2.4-0.2,6,1,7.8l0.1,0.1c0.6,0.9,1.3,1.8,2.1,1.8c0.4,0,0.7-0.1,1-0.3
    C29.8,29.6,30.3,29.4,31.1,29.4z M30.8,17.9c-0.1,0-0.1,0-0.2,0h-0.4l-0.1-0.4c-0.2-1.2,0.4-2.3,1-3c0.6-0.8,1.7-1.3,2.8-1.4h0.5
    l0.1,0.5c0.2,1.1-0.4,2.3-1,3C33,17.2,31.9,17.9,30.8,17.9z M33.5,14.1c-0.6,0.2-1.2,0.5-1.6,1c-0.4,0.4-0.7,1-0.8,1.7
    c0.6-0.1,1.2-0.6,1.6-1C33.1,15.5,33.4,14.8,33.5,14.1z"/>
  <path id="XMLID_1136_" d="M34,55H18.5c-1.4,0-2.5-1.1-2.5-2.5v-43C16,8.1,17.1,7,18.5,7h25C44.9,7,46,8.1,46,9.5V37h1V9.5
    C47,7.6,45.4,6,43.5,6h-25C16.6,6,15,7.6,15,9.5v43c0,1.9,1.6,3.5,3.5,3.5H34V55z"/>
</g>
</svg>

