<?xml version="1.0" encoding="utf-8"?>
<!-- Generator: Adobe Illustrator 19.0.0, SVG Export Plug-In . SVG Version: 6.00 Build 0)  -->
<svg version="1.1" id="图层_1" xmlns="http://www.w3.org/2000/svg" xmlns:xlink="http://www.w3.org/1999/xlink" x="0px" y="0px"
	 viewBox="0 0 16 16" style="enable-background:new 0 0 16 16;" xml:space="preserve">
<path d="M14,2H2C0.9,2,0,2.9,0,4v7.7c0,1.1,0.9,2,2,2h12c1.1,0,2-0.9,2-2V4C16,2.9,15.1,2,14,2z M15,11.7c0,0.6-0.4,1-1,1H2
	c-0.6,0-1-0.4-1-1V4c0-0.6,0.4-1,1-1h12c0.6,0,1,0.4,1,1V11.7z"/>
<path d="M13.2,4.8h-4C8.9,4.8,8.7,5,8.7,5.3s0.2,0.5,0.5,0.5h4c0.3,0,0.5-0.2,0.5-0.5S13.5,4.8,13.2,4.8z"/>
<path d="M13.2,10.1h-4c-0.3,0-0.5,0.2-0.5,0.5c0,0.3,0.2,0.5,0.5,0.5h4c0.3,0,0.5-0.2,0.5-0.5C13.7,10.3,13.5,10.1,13.2,10.1z"/>
<path d="M13.2,7.4h-4c-0.3,0-0.5,0.2-0.5,0.5c0,0.3,0.2,0.5,0.5,0.5h4c0.3,0,0.5-0.2,0.5-0.5C13.7,7.6,13.5,7.4,13.2,7.4z"/>
<path d="M6.2,6.2c0-0.8-0.6-1.4-1.3-1.4c-0.7,0-1.3,0.6-1.3,1.4s0.6,1.4,1.3,1.4C5.6,7.6,6.2,7,6.2,6.2z"/>
<path d="M4.9,7.6c-2,0-2.2,3.5-2.2,3.5h4.4C7.1,11.1,6.8,7.6,4.9,7.6z"/>
</svg>
