<?xml version="1.0" encoding="utf-8"?>
<!-- Generator: Adobe Illustrator 19.0.0, SVG Export Plug-In . SVG Version: 6.00 Build 0)  -->
<svg version="1.1" id="图层_1" xmlns="http://www.w3.org/2000/svg" xmlns:xlink="http://www.w3.org/1999/xlink" x="0px" y="0px"
	 viewBox="0 0 16 16" style="enable-background:new 0 0 16 16;" xml:space="preserve">
<style type="text/css">
	.st0{fill:#FFFFFF;}
</style>
<circle class="st0" cx="8" cy="12.6" r="0.7"/>
<path d="M8,0.3C3.8,0.3,0.3,3.8,0.3,8s3.4,7.7,7.7,7.7s7.7-3.4,7.7-7.7S12.2,0.3,8,0.3z M9,7.8C8.8,7.9,8.5,8.1,8.5,8.2
	c-0.1,0.2-0.1,1.2-0.1,2c0,0.2-0.2,0.4-0.4,0.4s-0.4-0.2-0.4-0.4c0-0.5,0-1.8,0.1-2.2c0.1-0.3,0.4-0.5,0.8-0.8
	c0.6-0.4,1.3-0.9,1.3-1.4c0-1.2-0.8-1.9-2-1.9c-0.6,0-1,0.2-1.4,0.5C6.2,4.7,6,5.2,6.1,5.8C6.1,6,6,6.2,5.7,6.2
	C5.5,6.2,5.3,6,5.3,5.8C5.3,5,5.5,4.3,6,3.8C6.4,3.3,7.1,3,7.9,3c1.6,0,2.8,1.1,2.8,2.7C10.7,6.7,9.7,7.3,9,7.8z M8.6,12.5
	c0,0.4-0.3,0.6-0.6,0.6c-0.4,0-0.6-0.3-0.6-0.6s0.3-0.6,0.6-0.6C8.4,11.9,8.6,12.1,8.6,12.5z"/>
</svg>
