<?xml version="1.0" encoding="utf-8"?>
<!-- Generator: Adobe Illustrator 19.0.0, SVG Export Plug-In . SVG Version: 6.00 Build 0)  -->
<svg version="1.1" id="图层_1" xmlns="http://www.w3.org/2000/svg" xmlns:xlink="http://www.w3.org/1999/xlink" x="0px" y="0px"
	 viewBox="0 0 16 16" style="enable-background:new 0 0 16 16;" xml:space="preserve">
<g id="XMLID_2_">
	<path id="XMLID_8_" d="M4.6,9.4l2.1-2.1l2.2,2.2c0,0,0.1,0.1,0.1,0.1c0.2,0.2,0.5,0.2,0.6,0L12,7.1c0.2-0.2,0.2-0.5,0-0.7
		c-0.2-0.2-0.5-0.2-0.6,0L9.3,8.6L7.1,6.4c0,0-0.1-0.1-0.1-0.1c-0.2-0.2-0.5-0.2-0.6,0L4,8.8C3.8,8.9,3.8,9.2,4,9.4
		C4.1,9.6,4.4,9.6,4.6,9.4z"/>
	<g id="XMLID_3_">
		<path id="XMLID_7_" d="M0.8,13.1H0L0.3,14h1.5C1.3,14,0.9,13.6,0.8,13.1z"/>
		<path id="XMLID_4_" d="M15.2,13.1c0,0,0-0.1,0-0.1v-0.9V3.5c0-0.6-0.4-1-1-1H1.8c-0.6,0-1,0.5-1,1v8.7V13c0,0,0,0.1,0,0.1
			c0.1,0.5,0.5,0.9,1,0.9h12.4h0h1.5l0.3-0.9H15.2z M14.2,12.1l0,0.9L1.8,13v-0.9V3.5l0,0l12.4,0L14.2,12.1z"/>
	</g>
</g>
</svg>
