<?xml version="1.0" encoding="utf-8"?>
<!-- Generator: Adobe Illustrator 19.0.0, SVG Export Plug-In . SVG Version: 6.00 Build 0)  -->
<svg version="1.1" id="图层_1" xmlns="http://www.w3.org/2000/svg" xmlns:xlink="http://www.w3.org/1999/xlink" x="0px" y="0px"
	 viewBox="0 0 16 16" style="enable-background:new 0 0 16 16;" xml:space="preserve">
<g>
	<g transform="scale(0.015625, 0.015625)">
		<path d="M620.5,933.4l86.1-202.8L912.8,924l47.2-50.4L753.7,680.3l196.9-99.1L436.2,424.3L620.5,933.4z M485.8,224.3
			c0,24.8-20,44.9-44.8,44.9l0,0c-24.8,0-44.9-20.1-44.9-44.9V108.9C396,84,416.1,64,441,64l0,0c24.8,0,44.8,20,44.8,44.9
			L485.8,224.3z M310.5,261.3c17.5,17.5,17.5,45.9,0,63.4l0,0c-17.5,17.5-46,17.5-63.4,0l-81.6-81.6c-17.5-17.5-17.5-45.9,0-63.4
			l0,0c17.5-17.5,46-17.5,63.4,0L310.5,261.3z M555.3,244.4c-17.5,17.5-17.5,46,0,63.5l0,0c17.5,17.5,46,17.5,63.5,0l81.5-81.6
			c17.5-17.5,17.5-46,0-63.4l0,0c-17.5-17.5-45.9-17.5-63.4,0L555.3,244.4z M224.3,400.8c24.8,0,44.9,20,44.9,44.9l0,0
			c0,24.8-20,44.9-44.9,44.9l-115.4-0.1c-24.8,0-44.9-20-44.9-44.9l0,0c0-24.8,20-44.8,44.9-44.8H224.3L224.3,400.8z M278.2,556.8
			c17.5-17.5,45.9-17.5,63.4,0.1l0,0c17.5,17.4,17.5,45.9,0.1,63.4l-81.6,81.5c-17.5,17.5-46,17.5-63.4,0l0,0
			c-17.5-17.5-17.5-46,0-63.4L278.2,556.8z"/>
	</g>
</g>
</svg>
