<?xml version="1.0" encoding="utf-8"?>
<!-- Generator: Adobe Illustrator 19.0.0, SVG Export Plug-In . SVG Version: 6.00 Build 0)  -->
<svg version="1.1" id="图层_1" xmlns="http://www.w3.org/2000/svg" xmlns:xlink="http://www.w3.org/1999/xlink" x="0px" y="0px"
     viewBox="0 0 16 16" style="enable-background:new 0 0 16 16;" xml:space="preserve">
<path d="M1,2v8.4c0,0.6,0.5,1,1.1,1h2.9c0.2,0,0.4-0.2,0.4-0.3c0-0.2-0.2-0.3-0.4-0.3H2.1c-0.2,0-0.4-0.2-0.4-0.4V2
    c0-0.2,0.2-0.3,0.4-0.3h10.3c0.2,0,0.4,0.2,0.4,0.3v4.9c0,0.2,0.2,0.3,0.4,0.3c0.2,0,0.4-0.2,0.4-0.3V2c0-0.6-0.5-1-1.1-1H2.1
    C1.5,1,1,1.5,1,2z"/>
<path d="M12.6,14.3c0.2-0.1,0.3-0.3,0.2-0.5l-1.3-3h3.1c0.2,0,0.3-0.1,0.3-0.2c0.1-0.1,0-0.3-0.1-0.4l-8.1-7
    C6.7,3.1,6.5,3.1,6.4,3.1C6.2,3.2,6.2,3.3,6.2,3.5V14c0,0.1,0.1,0.3,0.2,0.3s0.3,0,0.4-0.1L9,11.8l1.3,3c0.1,0.1,0.2,0.2,0.3,0.2
    l0,0c0,0,0.1,0,0.1,0L12.6,14.3z M9.4,11c0-0.1-0.2-0.2-0.3-0.2c0,0,0,0-0.1,0v0c-0.1,0-0.2,0-0.3,0.1L6.9,13V4.2l6.8,5.9h-2.7
    c-0.1,0-0.2,0.1-0.3,0.2c-0.1,0.1-0.1,0.2,0,0.3l1.3,3.2l-1.2,0.4L9.4,11z"/>
</svg>
