<?xml version="1.0" encoding="utf-8"?>
<!-- Generator: Adobe Illustrator 19.0.0, SVG Export Plug-In . SVG Version: 6.00 Build 0)  -->
<svg version="1.1" id="图层_1" xmlns="http://www.w3.org/2000/svg" xmlns:xlink="http://www.w3.org/1999/xlink" x="0px" y="0px"
	 viewBox="0 0 108 108" style="enable-background:new 0 0 108 108;" xml:space="preserve">
<path id="XMLID_5_" d="M108,91.1c0-11-5.5-19.1-14.5-21.1c-8.1-1.8-8.8-3.7-8.8-3.9c-0.4-1.5,0.4-5.8,2.9-8.5
	c3.4-3.7,6.6-10.4,5.7-14.7c-0.3-1.5-0.9-2.7-2-3.5c0.3-1.7,0.8-4,0.8-6.1c0.1-3.5-0.3-5.6-1.3-8.9c-1.3-4.4-4.7-7.3-11.7-10
	c-4.7-1.8-7.7-1.8-9.5-1.2c-2.2-4.1-6.7-7.2-14.5-10.1C46-0.5,33.7-0.2,30.5,1.3c-1.2,0.6-2.1,1.6-2.6,2.8c-0.5,1.5-0.4,3.2,0.1,4.7
	c-1.8,1.4-4.4,3.8-6,8.5c-2.1,6.2-0.4,14.6,0.9,19.1c-1.1,0.8-2.1,2.1-2.7,4.3c-1.2,4.9,2.4,13.9,7.7,19.2c3,3,3.2,9.1,2.4,13.4
	c-0.3,1.6-9.5,3.7-13,4.4C6.3,80.2,0,90,0,104.6v3.4h95v-3.4c0-3.8-0.6-7.4-1.8-10.6H108V91.1z M71.6,18.8l0.4,0.4
	c-0.1,0.1-0.2,0.1-0.2,0.2C71.7,19.2,71.6,19,71.6,18.8z M6.9,101c0.6-7,3.3-14.9,11.9-16.9c10.6-2.4,17.2-4.1,18.1-9.8
	c0.5-3,1.7-13.2-4.3-19.2c-4.2-4.2-6.3-11-5.9-12.9c0.1-0.3,0.2-0.4,0.2-0.5c0.1,0,0.3-0.1,0.5-0.2c0.6-0.2,2-0.7,2.6-2.3
	c0.4-1,0.4-2-0.1-2.9c-0.8-2-3.4-11.6-1.6-16.9c1.2-3.6,3.2-5,4.5-5.9c0.9-0.6,3.6-2.5,2.1-5.5c-0.2-0.3-0.3-0.7-0.4-1
	c3.3-0.4,11.5-0.5,18.2,2c8.9,3.4,10.8,6,11.5,8.4c1.2,3.8,1.7,5.7,1.5,9.4c-0.1,3.3-1.1,7.6-1.5,9.3L64.1,37
	c-0.1,0.4-0.6,3.5,3.1,4.5c0.1,0,0.1,0,0.2,0c0,0.1,0.1,0.2,0.1,0.3c0.4,2.2-1.8,8.5-5.9,12.8c-5.2,5.5-7.2,14.2-5.9,19
	c1.4,5,6.7,8,18.3,10.5c7.5,1.6,12.6,7.9,13.6,16.9H6.9z M90.3,88c-3.4-5.3-8.5-9-14.6-10.3c-10.2-2.2-13.1-4.4-13.5-5.8
	c-0.6-2.1,0.4-8.5,4.3-12.6c5.2-5.5,8.6-13.9,7.6-18.8c-0.5-2.4-1.7-3.8-2.9-4.5c0.5-2.3,1.1-5.7,1.2-8.7c0.1-3.2-0.2-5.4-0.7-7.8
	c0.6-0.1,2.1,0,4.9,1.1c6,2.3,7.2,4.1,7.7,5.7c0.9,2.8,1.1,4.1,1,6.7c-0.1,2.3-0.8,5.4-1.1,6.7l-0.1,0.6c-0.2,1.2,0,3.2,2.5,4.2
	c0,1.5-1.5,5.7-4.1,8.5c-4.1,4.4-5.5,11.2-4.5,15c1.5,5.3,8.2,7.5,14,8.8c4.9,1.1,8.2,5.3,9,11.3H90.3z"/>
</svg>
