<?xml version="1.0" encoding="utf-8"?>
<!-- Generator: Adobe Illustrator 19.0.0, SVG Export Plug-In . SVG Version: 6.00 Build 0)  -->
<svg version="1.1" id="图层_1" xmlns="http://www.w3.org/2000/svg" xmlns:xlink="http://www.w3.org/1999/xlink" x="0px" y="0px"
	 viewBox="0 0 13 13" style="enable-background:new 0 0 13 13;" xml:space="preserve">
<path d="M13,6.5C13,2.9,10.1,0,6.5,0S0,2.9,0,6.5C0,10.1,2.9,13,6.5,13S13,10.1,13,6.5z M10.1,4.3L5.9,8.5C5.7,8.7,5.5,8.7,5.4,8.7
	c-0.1,0-0.2-0.1-0.3-0.1L3,6.4C2.8,6.2,2.8,5.9,3,5.7c0.2-0.2,0.5-0.2,0.7,0l1.8,1.8l3.9-3.9c0.2-0.2,0.5-0.2,0.7,0
	C10.2,3.8,10.2,4.1,10.1,4.3z"/>
</svg>
