<?xml version="1.0" encoding="utf-8"?>
<!-- Generator: Adobe Illustrator 19.0.0, SVG Export Plug-In . SVG Version: 6.00 Build 0)  -->
<svg version="1.1" id="图层_1" xmlns="http://www.w3.org/2000/svg" xmlns:xlink="http://www.w3.org/1999/xlink" x="0px" y="0px"
	 viewBox="0 0 13 13" style="enable-background:new 0 0 13 13;" xml:space="preserve">
<path d="M13,6.5C13,2.9,10.1,0,6.5,0S0,2.9,0,6.5C0,10.1,2.9,13,6.5,13S13,10.1,13,6.5z M9,8.3C9.2,8.5,9.2,8.8,9,9
	C8.8,9.2,8.5,9.2,8.3,9L6.5,7.2L4.7,9C4.5,9.2,4.2,9.2,4,9C3.8,8.8,3.8,8.5,4,8.3l1.8-1.8L4,4.7C3.8,4.5,3.8,4.2,4,4
	c0.2-0.2,0.5-0.2,0.7,0l1.8,1.8L8.3,4C8.5,3.8,8.8,3.8,9,4c0.2,0.2,0.2,0.5,0,0.7L7.2,6.5L9,8.3z"/>
</svg>
