<?xml version="1.0" encoding="utf-8"?>
<!-- Generator: Adobe Illustrator 19.0.0, SVG Export Plug-In . SVG Version: 6.00 Build 0)  -->
<svg version="1.1" id="图层_1" xmlns="http://www.w3.org/2000/svg" xmlns:xlink="http://www.w3.org/1999/xlink" x="0px" y="0px"
	 viewBox="0 0 16 16" style="enable-background:new 0 0 16 16;" xml:space="preserve">
<style type="text/css">
	.st0{fill:#040000;}
</style>
<g id="XMLID_2_">
	<path id="XMLID_13_" class="st0" d="M13.9,9.8l-0.4,0.1v0.9c-1.5,2.5-4,3.9-5.5,3.9c-0.8,0-2.2-0.8-3.3-1.8L4.3,13l-1-1l-0.7,0.2
		C4,13.9,6.4,15.7,8,15.7c2.1,0,4.9-1.9,6.5-4.7V8.4l-0.6,0.2V9.8z"/>
	<path id="XMLID_12_" class="st0" d="M1.5,5.2l1-0.3V2.8C3.8,2.7,6.1,2.4,8,1.4c0.7,0.4,1.5,0.7,2.3,0.9l1.9-0.6
		C10.9,1.5,9.3,1.1,8,0.3C5.4,1.9,1.5,1.9,1.5,1.9V5.2z"/>
	<path id="XMLID_11_" class="st0" d="M12.2,1.7l-1.9,0.6c1.2,0.3,2.4,0.5,3.2,0.5v3.3L13.9,6v2.7l0.6-0.3V1.9
		C14.5,1.9,13.5,1.9,12.2,1.7z"/>
	<path id="XMLID_10_" class="st0" d="M1.5,10.3v0.6c0.2,0.4,0.6,0.8,1.1,1.3L3.3,12L1.5,10.3z"/>
	<polygon id="XMLID_9_" class="st0" points="2.5,9.8 2.5,4.9 1.5,5.2 1.5,10.1 	"/>
	<polygon id="XMLID_8_" class="st0" points="12.8,3.2 3.1,6.5 3.1,9.2 12.8,6 	"/>
	<path id="XMLID_7_" class="st0" d="M3.3,12l1,1l0.4-0.1C4.3,12.6,4,12.3,3.6,12L3.3,12z"/>
	<polygon id="XMLID_6_" class="st0" points="13.5,9.9 13.9,9.8 13.9,8.6 13.5,8.7 	"/>
	<polygon id="XMLID_5_" class="st0" points="13.9,8.6 13.9,6 13.5,6 13.5,8.7 	"/>
	<path id="XMLID_4_" class="st0" d="M2.5,10.8v-1l-1,0.3v0.2l1.8,1.8L3.6,12C3.1,11.5,2.7,11.1,2.5,10.8z"/>
	<polygon id="XMLID_3_" class="st0" points="12.8,6.8 3.1,10 4.2,11.1 12.8,8.3 	"/>
</g>
</svg>
