<?xml version="1.0" encoding="utf-8"?>
<!-- Generator: Adobe Illustrator 19.0.0, SVG Export Plug-In . SVG Version: 6.00 Build 0)  -->
<svg version="1.1" id="图层_1" xmlns="http://www.w3.org/2000/svg" xmlns:xlink="http://www.w3.org/1999/xlink" x="0px" y="0px"
     viewBox="0 0 16 16" style="enable-background:new 0 0 16 16;" xml:space="preserve">
<path d="M11.6,1H3.8C3.4,1,3,1.3,3,1.7v12.5c0,0.4,0.4,0.7,0.8,0.7h7.8c0.5,0,0.8-0.3,0.8-0.7V1.7C12.5,1.3,12.1,1,11.6,1z
     M7.7,14.2c-0.3,0-0.6-0.2-0.6-0.5s0.2-0.5,0.6-0.5c0.3,0,0.6,0.2,0.6,0.5S8,14.2,7.7,14.2z M11.6,12.5h-0.3H4.1H3.8V2.4h0.3h7.2
    h0.3V12.5z"/>
</svg>
