<?xml version="1.0" encoding="utf-8"?>
<!-- Generator: Adobe Illustrator 19.0.0, SVG Export Plug-In . SVG Version: 6.00 Build 0)  -->
<svg version="1.1" id="图层_1" xmlns="http://www.w3.org/2000/svg" xmlns:xlink="http://www.w3.org/1999/xlink" x="0px" y="0px"
	 viewBox="0 0 16 16" style="enable-background:new 0 0 16 16;" xml:space="preserve">
<g>
	<rect x="7.6" y="4.7" width="0.8" height="1.7"/>
	<rect x="7.6" y="7.2" width="0.8" height="3.6"/>
	<rect x="2.5" y="6.4" width="5.1" height="0.8"/>
	<rect x="8.4" y="6.4" width="5.1" height="0.8"/>
	<rect x="7.6" y="6.4" width="0.8" height="0.8"/>
	<polygon points="2.2,6.4 1.7,6.4 1.7,10.8 2.5,10.8 2.5,7.2 2.2,7.2 	"/>
	<rect x="2.2" y="6.4" width="0.3" height="0.8"/>
	<polygon points="14.3,6.4 13.8,6.4 13.8,7.2 13.5,7.2 13.5,10.8 14.3,10.8 	"/>
	<rect x="13.5" y="6.4" width="0.3" height="0.8"/>
	<path d="M8.4,4.6v0.1h1.7V1H5.9v3.7h1.7V4.6H8.4z M6.9,2h2.2v1.7H6.9V2z"/>
	<rect x="7.6" y="4.6" width="0.8" height="0.1"/>
	<path d="M4.2,10.8H2.5v0.9H1.7v-0.9H0v3.7h4.2V10.8z M1,13.5v-1.7h2.2v1.7"/>
	<rect x="1.7" y="10.8" width="0.8" height="0.9"/>
	<path d="M7.6,11.7v-0.9H5.9v3.7h4.2v-3.7H8.4v0.9H7.6z M9.1,13.5H6.9v-1.7h2.2V13.5z"/>
	<rect x="7.6" y="10.8" width="0.8" height="0.9"/>
	<path d="M14.3,10.8v0.9h-0.8v-0.9h-1.7v3.7H16v-3.7H14.3z M12.8,13.5v-1.7H15v1.7H12.8z"/>
	<rect x="13.5" y="10.8" width="0.8" height="0.9"/>
</g>
</svg>
