<?xml version="1.0" encoding="utf-8"?>
<!-- Generator: Adobe Illustrator 19.0.0, SVG Export Plug-In . SVG Version: 6.00 Build 0)  -->
<svg version="1.1" id="图层_1" xmlns="http://www.w3.org/2000/svg" xmlns:xlink="http://www.w3.org/1999/xlink" x="0px" y="0px"
	 viewBox="0 0 16 16" style="enable-background:new 0 0 16 16;" xml:space="preserve">
<path d="M14.6,6.3h-0.4c-0.1-0.5-0.4-1.1-0.6-1.5l0.3-0.3c0.5-0.5,0.5-1.4,0-2l-0.4-0.4c-0.3-0.3-0.6-0.4-1-0.4c0,0,0,0,0,0
	c-0.4,0-0.7,0.1-1,0.4l-0.3,0.3c-0.5-0.3-1-0.5-1.6-0.6V1.4C9.7,0.6,9,0,8.2,0H7.8C7,0,6.3,0.6,6.3,1.4v0.4C5.8,1.9,5.3,2.2,4.8,2.4
	L4.5,2.2c-0.3-0.3-0.6-0.4-1-0.4c-0.4,0-0.7,0.1-1,0.4L2.2,2.5c-0.3,0.3-0.4,0.6-0.4,1c0,0.4,0.1,0.7,0.4,1l0.3,0.3
	c-0.3,0.5-0.5,1-0.6,1.5H1.4C0.6,6.3,0,7,0,7.8v0.5C0,9,0.6,9.7,1.4,9.7h0.4c0.1,0.5,0.4,1.1,0.6,1.6l-0.3,0.3
	c-0.3,0.3-0.4,0.6-0.4,1c0,0.4,0.1,0.7,0.4,1l0.4,0.4c0.5,0.5,1.5,0.5,2,0l0.3-0.3c0.5,0.3,1,0.5,1.5,0.6v0.4C6.3,15.4,7,16,7.8,16
	h0.5c0.8,0,1.4-0.6,1.4-1.4v-0.4c0.5-0.1,1.1-0.4,1.5-0.6l0.3,0.3c0.5,0.5,1.4,0.5,2,0l0.4-0.4c0.3-0.3,0.4-0.6,0.4-1
	c0-0.4-0.1-0.7-0.4-1l-0.3-0.3c0.3-0.5,0.5-1,0.6-1.5h0.4C15.4,9.7,16,9,16,8.2V7.8C16,7,15.4,6.3,14.6,6.3z M15.1,8.2
	c0,0.3-0.2,0.5-0.5,0.5h-1.2l-0.1,0.4c-0.1,0.7-0.4,1.3-0.8,1.9l-0.2,0.3l0.8,0.8c0.1,0.1,0.1,0.2,0.1,0.3c0,0.1,0,0.2-0.1,0.3
	l-0.4,0.4c-0.2,0.2-0.5,0.2-0.7,0l-0.8-0.8L11,12.6c-0.6,0.4-1.2,0.7-1.9,0.8l-0.4,0.1v1.2c0,0.3-0.2,0.5-0.5,0.5H7.8
	c-0.3,0-0.5-0.2-0.5-0.5v-1.2l-0.4-0.1C6.2,13.2,5.6,13,5,12.6l-0.3-0.2l-0.8,0.8c-0.2,0.2-0.5,0.2-0.7,0l-0.4-0.4
	c-0.1-0.1-0.1-0.2-0.1-0.3c0-0.1,0-0.2,0.1-0.3l0.8-0.8L3.4,11C3,10.4,2.8,9.8,2.6,9.1L2.6,8.7H1.4c-0.3,0-0.5-0.2-0.5-0.5V7.8
	c0-0.3,0.2-0.5,0.5-0.5h1.2l0.1-0.4C2.8,6.2,3,5.6,3.4,5l0.2-0.3L2.8,3.8C2.7,3.8,2.7,3.6,2.7,3.5c0-0.1,0.1-0.2,0.1-0.3l0.4-0.4
	c0.1-0.1,0.2-0.1,0.3-0.1c0.1,0,0.2,0,0.3,0.1l0.8,0.8L5,3.4C5.6,3,6.2,2.8,6.9,2.6l0.4-0.1V1.4c0-0.3,0.2-0.5,0.5-0.5h0.5
	c0.3,0,0.5,0.2,0.5,0.5v1.2l0.4,0.1C9.8,2.8,10.4,3,11,3.4l0.3,0.2l0.8-0.8c0.1-0.1,0.2-0.1,0.3-0.1c0.1,0,0.2,0.1,0.3,0.1l0.4,0.4
	c0.2,0.2,0.2,0.5,0,0.7l-0.8,0.8L12.6,5c0.4,0.6,0.7,1.2,0.8,1.9l0.1,0.4h1.2c0.3,0,0.5,0.2,0.5,0.5V8.2z"/>
<path d="M8,4C5.8,4,4,5.8,4,8s1.8,4,4,4s4-1.8,4-4S10.2,4,8,4z M8,11.1c-1.7,0-3.1-1.4-3.1-3.1c0-1.7,1.4-3.1,3.1-3.1
	c1.7,0,3.1,1.4,3.1,3.1C11.1,9.7,9.7,11.1,8,11.1z"/>
</svg>
