<?xml version="1.0" encoding="utf-8"?>
<!-- Generator: Adobe Illustrator 19.0.0, SVG Export Plug-In . SVG Version: 6.00 Build 0)  -->
<svg version="1.1" id="图层_1" xmlns="http://www.w3.org/2000/svg" xmlns:xlink="http://www.w3.org/1999/xlink" x="0px" y="0px"
	 viewBox="0 0 32 32" style="enable-background:new 0 0 32 32;" xml:space="preserve">
<g id="XMLID_2_">
	<g id="XMLID_11_">
		<path id="XMLID_8_" d="M27,28H5c-1.7,0-3-1.3-3-3V7c0-1.7,1.3-3,3-3h22c1.7,0,3,1.3,3,3v18C30,26.6,28.6,28,27,28z M5,6
			C4.4,6,4,6.4,4,7v18c0,0.6,0.4,1,1,1h22c0.6,0,1-0.4,1-1V7c0-0.6-0.4-1-1-1C27,6,5,6,5,6z"/>
	</g>
	<g id="XMLID_7_">
		<polygon id="XMLID_6_" points="17.1,20.7 12.5,16.2 8,20.7 6.6,19.3 12.5,13.3 17.1,17.9 24,10.9 25.4,12.3 		"/>
	</g>
</g>
</svg>
