<?xml version="1.0" encoding="utf-8"?>
<!-- Generator: Adobe Illustrator 19.0.0, SVG Export Plug-In . SVG Version: 6.00 Build 0)  -->
<svg version="1.1" id="图层_1" xmlns="http://www.w3.org/2000/svg" xmlns:xlink="http://www.w3.org/1999/xlink" x="0px" y="0px"
	 viewBox="0 0 16 16" style="enable-background:new 0 0 16 16;" xml:space="preserve">
<path d="M3.6,7.2C3.3,7.2,3,7.5,3,7.8v3.8c0,0.3,0.3,0.6,0.6,0.6s0.6-0.3,0.6-0.6V7.8C4.2,7.5,3.9,7.2,3.6,7.2z"/>
<path d="M5.7,7.9c-0.3,0-0.6,0.3-0.6,0.6v3.1c0,0.3,0.3,0.6,0.6,0.6c0.3,0,0.6-0.3,0.6-0.6V8.5C6.3,8.2,6.1,7.9,5.7,7.9z"/>
<path d="M13.9,0.4H6.6H2.1c-1,0-1.9,0.8-2,1.8l0,0v0.2v11.2c0,0.2,0,0.4,0.1,0.6c0.3,0.8,1,1.4,1.9,1.4h0.3h2.1h2.1h2.6h2.1h2.1h0.5
	c0.7,0,1.3-0.4,1.7-0.9c0.2-0.3,0.3-0.7,0.3-1.1V2.4C15.9,1.3,15.1,0.4,13.9,0.4z M15.1,13.6c0,0.6-0.6,1-1.2,1h-0.5h-2.1H9.2H6.6
	H4.5H2.3H2.1c-0.5,0-1-0.5-1-1V2.9V2.4c0-0.1,0-0.1,0-0.2c0.1-0.5,0.5-0.8,1-0.8h0.3h4.3h6.9h0.5c0.5,0,0.9,0.4,1,0.8
	c0,0.1,0,0.1,0,0.2V13.6L15.1,13.6z"/>
<path d="M7.9,6.1c-0.3,0-0.6,0.3-0.6,0.6v4.9c0,0.3,0.3,0.6,0.6,0.6s0.6-0.3,0.6-0.6V6.7C8.5,6.4,8.2,6.1,7.9,6.1z"/>
<path d="M10,7.2c-0.3,0-0.6,0.3-0.6,0.6v3.8c0,0.3,0.3,0.6,0.6,0.6s0.6-0.3,0.6-0.6V7.8C10.6,7.5,10.3,7.2,10,7.2z"/>
<path d="M12.2,3.6c-0.3,0-0.6,0.3-0.6,0.6v7.4c0,0.3,0.3,0.6,0.6,0.6s0.6-0.3,0.6-0.6V4.2C12.7,3.9,12.5,3.6,12.2,3.6z"/>
</svg>
