<?xml version="1.0" encoding="utf-8"?>
<!-- Generator: Adobe Illustrator 19.0.0, SVG Export Plug-In . SVG Version: 6.00 Build 0)  -->
<svg version="1.1" id="图层_1" xmlns="http://www.w3.org/2000/svg" xmlns:xlink="http://www.w3.org/1999/xlink" x="0px" y="0px"
	 viewBox="0 0 280 55" style="enable-background:new 0 0 280 55;" xml:space="preserve">
<style type="text/css">
	.icon-logo-text-st0{fill:#505050;}
	.icon-logo-text-st1{fill:#19AC9E;}
</style>
<g id="XMLID_1019_">
	<path id="XMLID_1087_" class="icon-logo-text-st0" d="M52.3,16.1H56v4c1-1.6,1.9-2.8,2.9-3.6c0.9-0.8,2-1.2,3.1-1.2c1.1,0,2.3,0.3,3.4,0.9l-1.9,3
		c-0.5-0.3-1.1-0.5-1.6-0.5c-1.1,0-2.1,0.6-3.1,1.7c-1,1.1-1.7,2.6-2.1,4.3c-0.5,1.8-0.7,5-0.7,9.6v9.4h-3.7V16.1z"/>
	<path id="XMLID_1084_" class="icon-logo-text-st0" d="M68.1,30.1c0-4.1,1.4-7.6,4.2-10.5c2.8-2.9,6.2-4.3,10.3-4.3c4,0,7.4,1.4,10.2,4.3
		C95.6,22.6,97,26,97,30.1c0,4-1.4,7.5-4.2,10.4c-2.8,2.9-6.2,4.3-10.3,4.3c-4.1,0-7.5-1.4-10.3-4.3C69.5,37.6,68.1,34.2,68.1,30.1z
		 M93.4,30.2c0-3.1-1.1-5.7-3.2-8c-2.1-2.2-4.7-3.4-7.6-3.4c-3,0-5.5,1.1-7.6,3.4c-2.1,2.2-3.2,4.9-3.2,8c0,3.1,1,5.7,3.1,7.9
		c2.1,2.2,4.6,3.2,7.7,3.2c3.1,0,5.6-1.1,7.7-3.3C92.4,35.9,93.4,33.3,93.4,30.2z"/>
	<path id="XMLID_1082_" class="icon-logo-text-st0" d="M99.9,16.1h3.7l8.5,21.1l8.9-21.1h0.6l8.9,21.1l8.6-21.1h3.8l-12.1,28.7h-0.7L121.4,24
		l-8.9,20.8h-0.7L99.9,16.1z"/>
	<path id="XMLID_1079_" class="icon-logo-text-st0" d="M146.6,16.1h3.6v27.8h-3.6V16.1z"/>
	<path id="XMLID_1077_" class="icon-logo-text-st0" d="M145.6,5.5l2.6-2.5l3.9,3.9l-2.6,2.6L145.6,5.5z"/>
	<path id="XMLID_1075_" class="icon-logo-text-st0" d="M157.6,16.1h3.6v5c2.9-3.8,6.3-5.7,10.4-5.7c2.1,0,4,0.6,5.6,1.7c1.7,1.1,2.9,2.6,3.6,4.4
		c0.7,1.8,1,4.5,1,8.1v14.3h-3.6V30.6c0-3.2-0.1-5.4-0.4-6.6c-0.3-1.1-0.7-2.1-1.4-2.9c-0.6-0.8-1.4-1.4-2.3-1.8
		c-0.9-0.4-2.1-0.6-3.4-0.6c-1.3,0-2.7,0.3-3.9,1c-1.3,0.7-2.4,1.6-3.3,2.8c-0.9,1.2-1.5,2.4-1.8,3.7c-0.3,1.3-0.5,3.8-0.5,7.6v10.2
		h-3.6V16.1z"/>
	<path id="XMLID_1072_" class="icon-logo-text-st0" d="M213.8,16.1h3.6v21.4c0,3.8-0.3,6.6-1,8.4c-0.7,1.8-1.6,3.3-2.9,4.4
		c-1.3,1.2-2.8,2.1-4.6,2.7c-1.8,0.6-3.7,0.9-5.9,0.9c-7.3,0-12-2.9-14.3-8.7h3.9c2,3.6,5.5,5.4,10.3,5.4c2.3,0,4.4-0.5,6.1-1.4
		c1.7-0.9,2.9-2.1,3.7-3.5c0.7-1.4,1.1-3.6,1.1-6.6v-1.2c-1.4,1.8-3.1,3.1-5.1,4c-2,0.9-4,1.3-6.2,1.3c-4,0-7.4-1.4-10.1-4.1
		c-2.7-2.8-4-6-4-9.7c0-3.9,1.4-7.2,4.3-10c2.9-2.8,6.3-4.2,10.4-4.2c4.1,0,7.6,1.9,10.7,5.5V16.1z M214,29.5c0-3-1-5.6-3.1-7.6
		c-2.1-2.1-4.6-3.1-7.6-3.1c-3.2,0-5.9,1.1-8,3.3c-2.1,2.2-3.2,4.8-3.2,7.6c0,2.9,1,5.3,3.1,7.3c2.1,2,4.7,3,7.9,3
		c3.2,0,5.8-1,7.9-2.9C213,35.2,214,32.6,214,29.5z"/>
	<path id="XMLID_1070_" class="icon-logo-text-st1" d="M224.8,6.3h3.8v37.6h-3.8V6.3z"/>
	<path id="XMLID_1060_" class="icon-logo-text-st1" d="M235.5,25.2c0-3.6,0.9-7,2.6-10c1.7-3.1,4.1-5.5,7.2-7.2c3-1.7,6.3-2.6,9.9-2.6
		c3.6,0,6.9,0.9,10,2.6c3.1,1.7,5.5,4.1,7.3,7.2c1.8,3.1,2.6,6.4,2.6,9.9c0,3.6-0.9,6.9-2.6,9.9c-1.7,3-4.1,5.4-7.2,7.2
		c-3.1,1.7-6.4,2.6-9.9,2.6c-3.6,0-6.9-0.9-10-2.6c-3.1-1.7-5.5-4.1-7.2-7.1C236.4,32,235.5,28.8,235.5,25.2z M271.2,25.1
		c0-4.5-1.6-8.3-4.7-11.4c-3.1-3.1-6.9-4.7-11.3-4.7c-4.5,0-8.3,1.6-11.3,4.7c-3,3.1-4.5,6.9-4.5,11.4c0,4.5,1.6,8.3,4.7,11.4
		c3.1,3.1,6.9,4.7,11.2,4.7c4.4,0,8.1-1.5,11.2-4.6C269.6,33.5,271.2,29.7,271.2,25.1z"/>
	<path id="XMLID_1058_" class="icon-logo-text-st0" d="M47,21.5h-3.5c0.1,0.6,0.1,1.1,0.1,1.7c0,0.6,0,1.2-0.1,1.7c-0.9,9.2-8.6,16.4-18,16.4
		c-10,0-18.1-8.1-18.1-18.1c0-10,8.1-18.1,18.1-18.1c6.3,0,11.8,3.2,15,8.1h4C41,6.4,33.8,1.7,25.5,1.7C13.7,1.7,4,11.4,4,23.3
		c0,11.9,9.7,21.5,21.5,21.5c11.9,0,21.5-9.7,21.5-21.5C47.1,22.7,47,22.1,47,21.5z"/>
	<rect id="XMLID_1054_" x="25.5" y="21.5" class="icon-logo-text-st0" width="19.8" height="3.5"/>
</g>
</svg>
