<?xml version="1.0" encoding="utf-8"?>
<!-- Generator: Adobe Illustrator 19.0.0, SVG Export Plug-In . SVG Version: 6.00 Build 0)  -->
<svg version="1.1" id="图层_1" xmlns="http://www.w3.org/2000/svg" xmlns:xlink="http://www.w3.org/1999/xlink" x="0px" y="0px"
	 viewBox="0 0 30 30" style="enable-background:new 0 0 30 30;" xml:space="preserve">
<style type="text/css">
	.page-st0{fill:#E5E5E5;}
	.page-st1{fill:#5FC9B5;}
	.page-st2{fill:#FFFFFF;}
</style>
<g id="XMLID_20758_">
	<circle id="XMLID_21_" class="page-st0" cx="15" cy="15" r="15"/>
</g>
<circle id="XMLID_1_" class="page-st1" cx="15" cy="15" r="13"/>
<path id="XMLID_896_" class="page-st2" d="M20,9c0.6,0,1,0.4,1,1v11c0,0.6-0.4,1-1,1H10c-0.6,0-1-0.4-1-1V10c0-0.6,0.4-1,1-1H20 M20,8H10
	c-1.1,0-2,0.9-2,2v11c0,1.1,0.9,2,2,2h10c1.1,0,2-0.9,2-2V10C22,8.9,21.1,8,20,8L20,8z"/>
<path id="XMLID_888_" class="page-st2" d="M18,13h-6c-0.3,0-0.5-0.2-0.5-0.5S11.7,12,12,12h6c0.3,0,0.5,0.2,0.5,0.5S18.3,13,18,13z"/>
<path id="XMLID_862_" class="page-st2" d="M18,16h-6c-0.3,0-0.5-0.2-0.5-0.5S11.7,15,12,15h6c0.3,0,0.5,0.2,0.5,0.5S18.3,16,18,16z"/>
<path id="XMLID_831_" class="page-st2" d="M18,19h-6c-0.3,0-0.5-0.2-0.5-0.5S11.7,18,12,18h6c0.3,0,0.5,0.2,0.5,0.5S18.3,19,18,19z"/>
</svg>
