<?xml version="1.0" encoding="utf-8"?>
<!-- Generator: Adobe Illustrator 19.0.0, SVG Export Plug-In . SVG Version: 6.00 Build 0)  -->
<svg version="1.1" id="图形" xmlns="http://www.w3.org/2000/svg" xmlns:xlink="http://www.w3.org/1999/xlink" x="0px" y="0px"
   viewBox="0 0 16 16" style="enable-background:new 0 0 16 16;" xml:space="preserve">
<path d="M3.2,11.9V1.5h-1v10.4H0l2.6,2.5l2.6-2.5H3.2L3.2,11.9z"/>
<path d="M6.2,6.9l4.4,0c0.6,0,1.1-0.4,1.1-1c0-0.5-0.5-0.9-1.1-0.9L6.3,5C5.7,5,5.2,5.5,5.2,6C5.2,6.6,5.7,6.9,6.2,6.9z"/>
<path d="M6.2,3.4l2.1,0c0.6,0,1.1-0.4,1.1-1S8.9,1.5,8.3,1.5l-2.1,0c-0.6,0-1.1,0.4-1.1,1C5.1,3,5.6,3.4,6.2,3.4z"/>
<path d="M14.6,12.5l-8.6,0c-0.6,0-1.1,0.4-1.1,1c0,0.5,0.5,0.9,1.1,0.9l8.6,0c0.6-0.1,1.1-0.5,1.1-1C15.7,12.8,15.2,12.5,14.6,12.5z
  "/>
<path d="M6,10.6l6.4,0c0.6,0,1.1-0.4,1.1-1c0-0.5-0.5-0.9-1.1-0.9L6,8.7c-0.6,0-1.1,0.4-1.1,1C4.9,10.2,5.4,10.6,6,10.6z"/>
</svg>
