<?xml version="1.0" encoding="utf-8"?>
<!-- Generator: Adobe Illustrator 19.0.0, SVG Export Plug-In . SVG Version: 6.00 Build 0)  -->
<svg version="1.1" id="图层_1" xmlns="http://www.w3.org/2000/svg" xmlns:xlink="http://www.w3.org/1999/xlink" x="0px" y="0px"
	 viewBox="0 0 16 16" style="enable-background:new 0 0 16 16;" xml:space="preserve">
<path id="XMLID_1572_" d="M8.5,11.5c-2.2,0-4-1.8-4-4s1.8-4,4-4s4,1.8,4,4S10.7,11.5,8.5,11.5z M8.5,4.5c-1.7,0-3,1.3-3,3s1.3,3,3,3
	s3-1.3,3-3S10.2,4.5,8.5,4.5z"/>
<path id="XMLID_1571_" d="M8.5,2.5C8.2,2.5,8,2.3,8,2V0c0-0.3,0.2-0.5,0.5-0.5S9-0.3,9,0v2C9,2.3,8.8,2.5,8.5,2.5z"/>
<path id="XMLID_1570_" d="M8.5,15.5C8.2,15.5,8,15.3,8,15v-2c0-0.3,0.2-0.5,0.5-0.5S9,12.7,9,13v2C9,15.3,8.8,15.5,8.5,15.5z"/>
<path id="XMLID_1569_" d="M13.5,7.5C13.5,7.2,13.7,7,14,7h2c0.3,0,0.5,0.2,0.5,0.5S16.3,8,16,8h-2C13.7,8,13.5,7.8,13.5,7.5z"/>
<path id="XMLID_1568_" d="M0.5,7.5C0.5,7.2,0.7,7,1,7h2c0.3,0,0.5,0.2,0.5,0.5S3.3,8,3,8H1C0.7,8,0.5,7.8,0.5,7.5z"/>
<path id="XMLID_1567_" d="M12,4c-0.2-0.2-0.2-0.5,0-0.7l1.4-1.4c0.2-0.2,0.5-0.2,0.7,0c0.2,0.2,0.2,0.5,0,0.7L12.7,4
	C12.5,4.2,12.2,4.2,12,4z"/>
<path id="XMLID_1566_" d="M2.8,13.2c-0.2-0.2-0.2-0.5,0-0.7L4.3,11c0.2-0.2,0.5-0.2,0.7,0s0.2,0.5,0,0.7l-1.4,1.4
	C3.4,13.4,3,13.4,2.8,13.2z"/>
<path id="XMLID_1565_" d="M12,11c0.2-0.2,0.5-0.2,0.7,0l1.4,1.4c0.2,0.2,0.2,0.5,0,0.7c-0.2,0.2-0.5,0.2-0.7,0L12,11.7
	C11.8,11.5,11.8,11.2,12,11z"/>
<path id="XMLID_1561_" d="M2.8,1.8c0.2-0.2,0.5-0.2,0.7,0L5,3.3C5.2,3.5,5.2,3.8,5,4S4.5,4.2,4.3,4L2.8,2.6C2.6,2.4,2.6,2,2.8,1.8z"
	/>
</svg>
