<?xml version="1.0" encoding="utf-8"?>
<!-- Generator: Adobe Illustrator 19.0.0, SVG Export Plug-In . SVG Version: 6.00 Build 0)  -->
<svg version="1.1" id="图层_1" xmlns="http://www.w3.org/2000/svg" xmlns:xlink="http://www.w3.org/1999/xlink" x="0px" y="0px"
	 viewBox="0 0 16 16" style="enable-background:new 0 0 16 16;" xml:space="preserve">
<style type="text/css">
	.st0{fill:none;}
</style>
<path class="st0" d="M0,16h0.3C0.1,15.7,0,15.4,0,15V16z"/>
<path class="st0" d="M14.9,16H15v-0.2C15,15.9,14.9,15.9,14.9,16z"/>
<path d="M14.2,15V7.2c0-0.6-0.4-1-1-1h-0.9V4.7c0-2.6-2.1-4.7-4.7-4.7C5,0,2.9,2.1,2.9,4.7v1.5H2c-0.6,0-1,0.5-1,1V15
	c0,0.6,0.4,1,1,1h11.2C13.7,16,14.2,15.5,14.2,15z M3.8,4.6c0-2.1,1.7-3.8,3.8-3.8c2.1,0,3.8,1.7,3.8,3.8v1.6H3.8V4.6z M2,15l0-7.8
	h4.7C7,7.1,7.3,7,7.6,7c0.3,0,0.6,0.1,0.9,0.2h2.8l1.9,0l0,7.8L2,15z"/>
<path d="M7.6,8c0.5,0,0.9,0.4,0.9,0.9C8.5,9,8,10,8,10s0,3.1-0.4,3.1c-0.4,0-0.5-3.1-0.5-3.1S6.6,9,6.6,8.9C6.6,8.4,7.1,8,7.6,8z"/>
<path d="M7.6,7C7.3,7,7,7.1,6.7,7.2h1.8C8.2,7.1,7.9,7,7.6,7z"/>
<path d="M7.6,13.1C8,13.1,8,10,8,10S8.5,9,8.5,8.9C8.5,8.4,8.1,8,7.6,8S6.6,8.4,6.6,8.9C6.6,9,7.1,10,7.1,10S7.2,13.1,7.6,13.1z"/>
</svg>
