<?xml version="1.0" encoding="utf-8"?>
<!-- Generator: Adobe Illustrator 19.0.0, SVG Export Plug-In . SVG Version: 6.00 Build 0)  -->
<svg version="1.1" id="图层_1" xmlns="http://www.w3.org/2000/svg" xmlns:xlink="http://www.w3.org/1999/xlink" x="0px" y="0px"
	 viewBox="-41 16 16 16" style="enable-background:new -41 16 16 16;" xml:space="preserve">
<path id="XMLID_877_" d="M-33,17c2.2,0,4,1.8,4,4s-1.8,4-4,4s-4-1.8-4-4S-35.2,17-33,17 M-33,16c-2.8,0-5,2.2-5,5s2.2,5,5,5
	s5-2.2,5-5S-30.2,16-33,16L-33,16z"/>
<path id="XMLID_959_" d="M-28.1,24.5l-0.6,0.8c0.9,0.9,1.7,2.3,1.7,3.7c0,1.3-2.2,2-6,2c-3.7,0-6-0.8-6-2c0-1.6,1-3.1,2-4l-0.7-0.7
	C-39,25.4-40,27.2-40,29c0,2,2.7,3,7,3s7-1,7-3C-26,27.2-27,25.5-28.1,24.5z"/>
</svg>
