<?xml version="1.0" encoding="utf-8"?>
<!-- Generator: Adobe Illustrator 19.0.0, SVG Export Plug-In . SVG Version: 6.00 Build 0)  -->
<svg version="1.1" id="图层_1" xmlns="http://www.w3.org/2000/svg" xmlns:xlink="http://www.w3.org/1999/xlink" x="0px" y="0px"
	 viewBox="0 0 26 26" style="enable-background:new 0 0 26 26;" xml:space="preserve">
<path id="XMLID_8_" d="M24,1H2C0.9,1,0,1.9,0,3v13v1v2c0,1.1,0.9,2,2,2h9l-2,3H8v1h10v-1h-1l-2-3h9c1.1,0,2-0.9,2-2v-2v-1V3
	C26,1.9,25.1,1,24,1z M16,24h-6l2-3h2L16,24z M25,19c0,0.6-0.4,1-1,1H2c-0.6,0-1-0.4-1-1v-2h24V19z M1,16V3c0-0.6,0.4-1,1-1h22
	c0.6,0,1,0.4,1,1v13H1z"/>
</svg>
