<?xml version="1.0" encoding="utf-8"?>
<!-- Generator: Adobe Illustrator 19.0.0, SVG Export Plug-In . SVG Version: 6.00 Build 0)  -->
<svg version="1.1" id="图层_1" xmlns="http://www.w3.org/2000/svg" xmlns:xlink="http://www.w3.org/1999/xlink" x="0px" y="0px"
	 viewBox="0 0 18 18" style="enable-background:new 0 0 18 18;" xml:space="preserve">
<g id="XMLID_334_">
	<rect id="XMLID_357_" x="12" y="8" transform="matrix(-0.9939 -0.1103 0.1103 -0.9939 23.5446 26.3027)" width="1" height="9.1"/>
	<polygon id="XMLID_356_" points="17.3,11.8 14.5,9 13.8,9.7 16.6,12.5 13.8,15.4 14.5,16.1 17.3,13.2 18,12.5 	"/>
	<polygon id="XMLID_355_" points="10.5,9 7.6,11.8 6.9,12.5 7.6,13.2 10.5,16.1 11.2,15.4 8.3,12.5 11.2,9.7 	"/>
	<path id="XMLID_336_" d="M3,2h7v5h5v1h1V7V6l-5-5h-1H2v16h8v-1H3V2z M14.6,6H11V2.4L14.6,6z"/>
</g>
</svg>

