<?xml version="1.0" encoding="utf-8"?>
<!-- Generator: Adobe Illustrator 19.0.0, SVG Export Plug-In . SVG Version: 6.00 Build 0)  -->
<svg version="1.1" id="图层_1" xmlns="http://www.w3.org/2000/svg" xmlns:xlink="http://www.w3.org/1999/xlink" x="0px" y="0px"
	 viewBox="0 0 26 26" style="enable-background:new 0 0 26 26;" xml:space="preserve">
<g id="XMLID_1933_">
	<path id="XMLID_1820_" d="M13,1c6.6,0,12,5.4,12,12s-5.4,12-12,12S1,19.6,1,13S6.4,1,13,1 M13,0C5.8,0,0,5.8,0,13s5.8,13,13,13
		s13-5.8,13-13S20.2,0,13,0L13,0z"/>
	<path id="XMLID_1816_" d="M13,5c1.1,0,2,0.9,2,2s-0.9,2-2,2s-2-0.9-2-2S11.9,5,13,5 M13,4c-1.7,0-3,1.3-3,3s1.3,3,3,3s3-1.3,3-3
		S14.7,4,13,4L13,4z"/>
	<path id="XMLID_1810_" d="M13,12c1.1,0,1.8,0.3,2.1,0.5l0.7,4.5H15h-0.8L14,17.8L13.2,21h-0.4L12,17.8L11.8,17H11h-0.8l0.7-4.5
		C11.3,12.3,11.9,12,13,12 M13,11c-2,0-3,1-3,1l-1,6h2l1,4h2l1-4h2l-1-6C16,12,15,11,13,11L13,11z"/>
	<path id="XMLID_851_" d="M19,7c0.6,0,1,0.4,1,1s-0.4,1-1,1s-1-0.4-1-1S18.4,7,19,7 M19,6c-1.1,0-2,0.9-2,2s0.9,2,2,2s2-0.9,2-2
		S20.1,6,19,6L19,6z"/>
	<path id="XMLID_404_" d="M22,12c0,0-1-1-3-1c-0.9,0-1.6,0.2-2.1,0.4l0.6,0.8c0.4-0.1,0.9-0.3,1.5-0.3c1.1,0,1.8,0.3,2.1,0.6
		l0.7,3.4H21h-0.8L20,16.8L19.2,20H18v1h2l1-4h2L22,12z"/>
	<path id="XMLID_365_" d="M6.9,7c0.6,0,1,0.4,1,1s-0.4,1-1,1s-1-0.4-1-1S6.4,7,6.9,7 M6.9,6c-1.1,0-2,0.9-2,2s0.9,2,2,2s2-0.9,2-2
		S8,6,6.9,6L6.9,6z"/>
	<path id="XMLID_362_" d="M3.9,12c0,0,1-1,3-1c0.9,0,1.6,0.2,2.1,0.4l-0.6,0.8C8.1,12.1,7.6,12,6.9,12c-1.1,0-1.8,0.3-2.1,0.6
		L4.2,16h0.8h0.8l0.2,0.8L6.7,20H8v1H5.9l-1-4h-2L3.9,12z"/>
</g>
</svg>
