<?xml version="1.0" encoding="utf-8"?>
<!-- Generator: Adobe Illustrator 19.0.0, SVG Export Plug-In . SVG Version: 6.00 Build 0)  -->
<svg version="1.1" id="图层_1" xmlns="http://www.w3.org/2000/svg" xmlns:xlink="http://www.w3.org/1999/xlink" x="0px" y="0px"
	 viewBox="0 0 16 16" style="enable-background:new 0 0 16 16;" xml:space="preserve">
<path id="XMLID_9077_" d="M14,1c-1.1,0-2,0.9-2,2c0,0.6,0.3,1.1,0.7,1.5L10.4,9c-0.1,0-0.3,0-0.4,0C9.8,9,9.6,9,9.3,9.1L7.5,6.3
	C7.8,6,8,5.5,8,5c0-1.1-0.9-2-2-2S4,3.9,4,5c0,0.6,0.3,1.1,0.7,1.5L2.4,11c-0.1,0-0.3,0-0.4,0c-1.1,0-2,0.9-2,2s0.9,2,2,2s2-0.9,2-2
	c0-0.6-0.3-1.1-0.7-1.5L5.6,7C5.7,7,5.9,7,6,7c0.2,0,0.4,0,0.7-0.1l1.9,2.8C8.2,10,8,10.5,8,11c0,1.1,0.9,2,2,2s2-0.9,2-2
	c0-0.6-0.3-1.1-0.7-1.5L13.6,5c0.1,0,0.3,0,0.4,0c1.1,0,2-0.9,2-2S15.1,1,14,1z M3,13c0,0.6-0.4,1-1,1s-1-0.4-1-1c0-0.5,0.4-1,0.9-1
	c0,0,0,0,0.1,0c0.4,0,0.6,0.2,0.8,0.5C2.9,12.6,3,12.8,3,13z M6,6C5.6,6,5.4,5.8,5.2,5.5C5.1,5.4,5,5.2,5,5c0-0.5,0.4-1,0.9-1
	c0,0,0,0,0,0C6,4,6,4,6,4c0.6,0,1,0.4,1,1c0,0.2,0,0.3-0.1,0.4C6.7,5.8,6.4,6,6,6z M11,11c0,0.5-0.4,1-0.9,1c0,0,0,0,0,0
	c0,0,0,0-0.1,0c-0.6,0-1-0.4-1-1c0-0.2,0-0.3,0.1-0.4C9.3,10.2,9.6,10,10,10c0.4,0,0.6,0.2,0.8,0.5C10.9,10.6,11,10.8,11,11z
	 M14.1,4C14,4,14,4,14.1,4c-0.4,0-0.7-0.2-0.9-0.5C13.1,3.4,13,3.2,13,3c0-0.6,0.4-1,1-1s1,0.4,1,1C15,3.5,14.6,4,14.1,4z"/>
</svg>
