<?xml version="1.0" encoding="utf-8"?>
<!-- Generator: Adobe Illustrator 19.0.0, SVG Export Plug-In . SVG Version: 6.00 Build 0)  -->
<svg version="1.1" id="图层_1" xmlns="http://www.w3.org/2000/svg" xmlns:xlink="http://www.w3.org/1999/xlink" x="0px" y="0px"
	 viewBox="56 -56 128 128" style="enable-background:new 56 -56 128 128;" xml:space="preserve">
<g>
	<g transform="scale(0.125, 0.125)">
		<path d="M1322-298.1c-11-11-22.3-21.3-34-31.1c1-2.7,0.2-5.9-2.2-7.7l-10.8-8.5c-2.3-1.8-5.5-1.9-7.9-0.4
			c-200.6-150.8-486.6-134.9-669.2,47.7C398-98.1,398,226.1,598,426c199.9,200,524.1,200,724,0C1522,226.1,1522-98.1,1322-298.1z
			 M1283.6,387.6c-178.9,178.8-468.5,178.7-647.3,0c-178.7-178.8-178.8-468.5,0-647.3c162.9-162.9,417.8-177.3,597.1-43.5
			l-99.9,127.8C1018-259.2,855-249.1,751-145C635.8-29.8,635.8,157.8,751,273c59.8,59.8,139.1,88.5,217.6,86.2
			c3.8,7.5,8.7,14.5,15,20.8c31.2,31.2,81.9,31.1,113.2-0.1c18.3-18.3,25.8-43.2,22.7-67c17.6-11.3,34.3-24.5,49.6-39.9
			c115.2-115.3,115.2-302.8,0-418.1c-4.6-4.6-9.3-8.9-14.1-13.1l99.9-127.9c9.9,8.3,19.5,17.1,28.8,26.4
			C1462.4-81,1462.4,208.8,1283.6,387.6z M1096.7,266.7c-31.3-31.3-82-31.4-113.2-0.1c-20,20-27.2,47.9-21.6,73.6
			c-71.4,0.5-143-26.4-197.4-80.8c-107.8-107.8-107.8-283.2,0-391c97.1-97.1,248.9-106.7,356.9-28.9l-140.6,180
			c-18.2-8.5-40.5-5.2-55.4,9.7c-19.2,19.1-19.2,50.3-0.1,69.3c19.3,19.2,50.3,19.2,69.5,0c16.4-16.4,18.8-41.9,6.7-60.9
			l140.3-179.5c0.5-0.4,1-0.8,1.4-1.3c4.2,3.7,8.3,7.5,12.4,11.6c107.7,107.8,107.8,283.2,0,391c-12.8,12.8-26.6,24.1-41.1,33.9
			C1110.4,283.6,1104.6,274.5,1096.7,266.7z"/>
	</g>
</g>
</svg>
