<?xml version="1.0" standalone="no"?><!DOCTYPE svg PUBLIC "-//W3C//DTD SVG 1.1//EN" "http://www.w3.org/Graphics/SVG/1.1/DTD/svg11.dtd"><svg width="200" height="200" viewBox="0 0 200 200" version="1.1" xmlns="http://www.w3.org/2000/svg" xmlns:xlink="http://www.w3.org/1999/xlink"><defs><style type="text/css"><![CDATA[
@font-face { font-family: ifont; src: url("//at.alicdn.com/t/font_1442373896_4754455.eot?#iefix") format("embedded-opentype"), url("//at.alicdn.com/t/font_1442373896_4754455.woff") format("woff"), url("//at.alicdn.com/t/font_1442373896_4754455.ttf") format("truetype"), url("//at.alicdn.com/t/font_1442373896_4754455.svg#ifont") format("svg"); }

]]></style></defs><g class="transform-group"><g transform="scale(0.1953125, 0.1953125)"><path d="M511.999488 65.838497c-245.998717 0-446.161503 200.141296-446.161503 446.161503 0 246.02123 200.162786 446.161503 446.161503 446.161503 245.998717 0 446.161503-200.140273 446.161503-446.161503C958.160991 265.979794 757.997182 65.838497 511.999488 65.838497zM511.999488 899.472845c-213.690894 0-387.515824-173.823907-387.515824-387.471822 0-213.690894 173.824931-387.494335 387.515824-387.494335 213.669404 0 387.514801 173.803441 387.514801 387.494335C899.514289 725.647915 725.668892 899.472845 511.999488 899.472845zM696.649975 626.350374l-50.824549 38.712697 0.413416 5.598508c0.588401 7.974625 0.457418 15.511275-0.457418 22.917966-7.275707 58.406225-57.186444 101.671611-113.282043 94.395904-8.735965-1.088798-17.450441-3.747347-27.558659-8.366551l-5.664-2.614547-48.929386 37.427424 12.678764 7.9296c19.237133 12.046361 40.259936 19.562545 62.48103 22.308075 6.317892 0.806365 12.657274 1.175779 18.931165 1.175779 80.21288 0 148.422378-62.393026 158.705582-145.17645 2.396583-19.367093 1.416256-39.060621-2.963495-58.558697L696.649975 626.350374zM250.314511 312.861544c-17.470907 0-31.67542 14.226003-31.67542 31.719422l0 194.236819c0 17.450441 14.204513 31.631418 31.67542 31.631418 17.514909 0 31.719422-14.180977 31.719422-31.631418L282.033933 344.580966C282.033933 327.065034 267.786441 312.861544 250.314511 312.861544zM571.211055 570.428737c17.47193 0 31.718399-14.204513 31.718399-31.654954L602.929454 344.515475c0-17.494443-14.246469-31.719422-31.718399-31.719422-17.470907 0-31.719422 14.224979-31.719422 31.719422l0 194.279798C539.579637 556.245713 553.804616 570.428737 571.211055 570.428737z" fill="#272636"></path></g></g></svg>